HIERARCHY
ROOT hip
{
  OFFSET 0 0 0
  CHANNELS 6 Xposition Yposition Zposition Zrotation Yrotation Xrotation
  JOINT abdomen
  {
    OFFSET 0 20.6881 -0.73152
    CHANNELS 3 Zrotation Xrotation Yrotation
    JOINT chest
    {
      OFFSET 0 11.7043 -0.48768
      CHANNELS 3 Zrotation Xrotation Yrotation
      JOINT neck
      {
        OFFSET 0 22.1894 -2.19456
        CHANNELS 3 Zrotation Xrotation Yrotation
        JOINT head
        {
          OFFSET -0.24384 7.07133 1.2192
          CHANNELS 3 Zrotation Xrotation Yrotation
          JOINT leftEye
          {
            OFFSET 4.14528 8.04674 8.04672
            CHANNELS 3 Zrotation Xrotation Yrotation
            End Site
            {
              OFFSET 1 0 0
            }
          }
          JOINT rightEye
          {
            OFFSET -3.6576 8.04674 8.04672
            CHANNELS 3 Zrotation Xrotation Yrotation
            End Site
            {
              OFFSET 1 0 0
            }
          }
        }
      }
      JOINT rCollar
      {
        OFFSET -2.68224 19.2634 -4.8768
        CHANNELS 3 Zrotation Xrotation Yrotation
        JOINT rShldr
        {
          OFFSET -8.77824 -1.95073 1.46304
          CHANNELS 3 Zrotation Xrotation Yrotation
          JOINT rForeArm
          {
            OFFSET -28.1742 -1.7115 0.48768
            CHANNELS 3 Zrotation Xrotation Yrotation
            JOINT rHand
            {
              OFFSET -22.5879 0.773209 7.07136
              CHANNELS 3 Zrotation Xrotation Yrotation
              JOINT rThumb1
              {
                OFFSET -1.2192 -0.487915 3.41376
                CHANNELS 3 Zrotation Xrotation Yrotation
                JOINT rThumb2
                {
                  OFFSET -3.37035 -0.52449 3.41376
                  CHANNELS 3 Zrotation Xrotation Yrotation
                  End Site
                  {
                    OFFSET -1.78271 -1.18214 1.43049
                  }
                }
              }
              JOINT rIndex1
              {
                OFFSET -7.75947 0.938293 5.60832
                CHANNELS 3 Zrotation Xrotation Yrotation
                JOINT rIndex2
                {
                  OFFSET -2.54057 -0.884171 1.56538
                  CHANNELS 3 Zrotation Xrotation Yrotation
                  End Site
                  {
                    OFFSET -1.62519 -0.234802 1.16502
                  }
                }
              }
              JOINT rMid1
              {
                OFFSET -8.24714 1.18213 3.41376
                CHANNELS 3 Zrotation Xrotation Yrotation
                JOINT rMid2
                {
                  OFFSET -3.10165 -0.590103 1.0647
                  CHANNELS 3 Zrotation Xrotation Yrotation
                  End Site
                  {
                    OFFSET -2.48547 -0.328903 0.83742
                  }
                }
              }
              JOINT rRing1
              {
                OFFSET -8.82822 0.546677 1.51678
                CHANNELS 3 Zrotation Xrotation Yrotation
                JOINT rRing2
                {
                  OFFSET -2.60934 -0.819778 -0.0198488
                  CHANNELS 3 Zrotation Xrotation Yrotation
                  End Site
                  {
                    OFFSET -2.33842 -0.294052 0.168128
                  }
                }
              }
              JOINT rPinky1
              {
                OFFSET -8.27202 -0.0477905 -0.4584
                CHANNELS 3 Zrotation Xrotation Yrotation
                JOINT rPinky2
                {
                  OFFSET -1.82734 -0.647385 -0.700984
                  CHANNELS 3 Zrotation Xrotation Yrotation
                  End Site
                  {
                    OFFSET -1.69225 -0.51767 -0.607171
                  }
                }
              }
            }
          }
        }
      }
      JOINT lCollar
      {
        OFFSET 2.68224 19.2634 -4.8768
        CHANNELS 3 Zrotation Xrotation Yrotation
        JOINT lShldr
        {
          OFFSET 8.77824 -1.95073 1.46304
          CHANNELS 3 Zrotation Xrotation Yrotation
          JOINT lForeArm
          {
            OFFSET 28.1742 -1.7115 0.48768
            CHANNELS 3 Zrotation Xrotation Yrotation
            JOINT lHand
            {
              OFFSET 22.5879 0.773209 7.07136
              CHANNELS 3 Zrotation Xrotation Yrotation
              JOINT lThumb1
              {
                OFFSET 1.2192 -0.487915 3.41376
                CHANNELS 3 Zrotation Xrotation Yrotation
                JOINT lThumb2
                {
                  OFFSET 3.37035 -0.52449 3.41376
                  CHANNELS 3 Zrotation Xrotation Yrotation
                  End Site
                  {
                    OFFSET 1.78271 -1.18214 1.43049
                  }
                }
              }
              JOINT lIndex1
              {
                OFFSET 7.75947 0.938293 5.60832
                CHANNELS 3 Zrotation Xrotation Yrotation
                JOINT lIndex2
                {
                  OFFSET 2.54057 -0.884171 1.56538
                  CHANNELS 3 Zrotation Xrotation Yrotation
                  End Site
                  {
                    OFFSET 1.62519 -0.234802 1.16502
                  }
                }
              }
              JOINT lMid1
              {
                OFFSET 8.24714 1.18213 3.41376
                CHANNELS 3 Zrotation Xrotation Yrotation
                JOINT lMid2
                {
                  OFFSET 3.10165 -0.590103 1.0647
                  CHANNELS 3 Zrotation Xrotation Yrotation
                  End Site
                  {
                    OFFSET 2.48547 -0.328903 0.83742
                  }
                }
              }
              JOINT lRing1
              {
                OFFSET 8.82822 0.546677 1.51678
                CHANNELS 3 Zrotation Xrotation Yrotation
                JOINT lRing2
                {
                  OFFSET 2.60934 -0.819778 -0.0198488
                  CHANNELS 3 Zrotation Xrotation Yrotation
                  End Site
                  {
                    OFFSET 2.33842 -0.294052 0.168128
                  }
                }
              }
              JOINT lPinky1
              {
                OFFSET 8.27202 -0.0477905 -0.4584
                CHANNELS 3 Zrotation Xrotation Yrotation
                JOINT lPinky2
                {
                  OFFSET 1.82734 -0.647385 -0.700984
                  CHANNELS 3 Zrotation Xrotation Yrotation
                  End Site
                  {
                    OFFSET 1.69225 -0.51767 -0.607171
                  }
                }
              }
            }
          }
        }
      }
    }
  }
  JOINT rButtock
  {
    OFFSET -8.77824 4.35084 1.2192
    CHANNELS 3 Zrotation Xrotation Yrotation
    JOINT rThigh
    {
      OFFSET 0 -1.70687 -2.19456
      CHANNELS 3 Zrotation Xrotation Yrotation
      JOINT rShin
      {
        OFFSET 0 -36.8199 0.73152
        CHANNELS 3 Zrotation Xrotation Yrotation
        JOINT rFoot
        {
          OFFSET 0.73152 -45.1104 -5.12064
          CHANNELS 3 Zrotation Xrotation Yrotation
          End Site
          {
            OFFSET -1.1221 -3.69964 12.103
          }
        }
      }
    }
  }
  JOINT lButtock
  {
    OFFSET 8.77824 4.35084 1.2192
    CHANNELS 3 Zrotation Xrotation Yrotation
    JOINT lThigh
    {
      OFFSET 0 -1.70687 -2.19456
      CHANNELS 3 Zrotation Xrotation Yrotation
      JOINT lShin
      {
        OFFSET 0 -36.8199 0.73152
        CHANNELS 3 Zrotation Xrotation Yrotation
        JOINT lFoot
        {
          OFFSET -0.73152 -45.1104 -5.12064
          CHANNELS 3 Zrotation Xrotation Yrotation
          End Site
          {
            OFFSET 1.1221 -3.69964 12.103
          }
        }
      }
    }
  }
}
MOTION
Frames:	4
Frame Time:	0.00833333
-5.72789 80.842 135.429 -0.9242 6.2703 -10.3535 3.57742 12.8104 -7.73826 5.8397 -6.53894 -1.57713 -10.4331 -4.38802 -2.78678 9.4232 -0.236163 -1.83178 -0.0 0.0 0.0 -0.0 0.0 0.0 2.93885e-15 2.35361e-13 9.9442e-14 79.7331 20.0168 -19.2244 -24.7268 -20.5217 51.9983 -0.0206836 4.10222 0.577526 -1.34935e-09 3.79176e-09 1.26902e-09 -2.33027e-09 6.5485e-09 2.19828e-09 -1.34934e-09 3.79177e-09 1.269e-09 7.73091 5.47488 0.417314 -1.34935e-09 3.79177e-09 1.26901e-09 2.90554 0.965183 0.102902 -1.34935e-09 3.79177e-09 1.26901e-09 10.2786 0.731801 0.0259123 -1.34936e-09 3.79176e-09 1.26902e-09 2.22167 -0.733487 -0.20892 2.97518e-15 2.35361e-13 9.92929e-14 -84.0299 23.5251 -2.9152 28.2833 -32.72 -71.6164 0.28649 -15.0596 2.16714 1.07841e-12 1.72193e-08 -1.8134e-09 1.97552e-11 2.96943e-08 -3.12795e-09 1.07582e-12 1.72193e-08 -1.81339e-09 -7.73091 5.47488 -0.417314 1.07662e-12 1.72193e-08 -1.8134e-09 -2.90554 0.965183 -0.102902 1.06222e-12 1.72193e-08 -1.8134e-09 -10.2786 0.731801 -0.0259123 1.07721e-12 1.72193e-08 -1.81341e-09 -2.22167 -0.733487 0.20892 -2.03217e-16 0.0 -3.88251e-19 1.89217 -34.3504 1.18874 -0.522245 44.1658 0.186323 -0.367022 4.79023 -1.2952 2.03217e-16 0.0 3.88251e-19 -0.202645 -13.5734 -7.7808 2.90195 74.3499 -3.31273 0.4747 -4.83373 -0.0324634
-5.59887 81.206 136.342 -0.4442 6.6608 -10.0948 4.14595 12.6953 -7.70654 5.69447 -6.60452 -1.55825 -10.4138 -4.19751 -2.86874 9.34898 -0.179303 -2.03923 -0.0 0.0 0.0 -0.0 0.0 0.0 1.50125e-14 2.3851e-13 6.46943e-14 79.1869 18.7816 -17.7639 -24.2506 -19.573 50.4684 -0.0388557 5.47882 0.772286 -1.33873e-09 3.54623e-09 1.01685e-09 -2.31234e-09 6.12449e-09 1.76246e-09 -1.33872e-09 3.54623e-09 1.01683e-09 7.73091 5.47488 0.417314 -1.33873e-09 3.54623e-09 1.01684e-09 2.90554 0.965183 0.102902 -1.33872e-09 3.54623e-09 1.01684e-09 10.2786 0.731801 0.0259123 -1.33873e-09 3.54623e-09 1.01685e-09 2.22167 -0.733487 -0.20892 1.5043e-14 2.38512e-13 6.45534e-14 -84.5149 23.2131 -2.73494 28.0577 -31.0378 -68.8746 0.240682 -13.9883 2.00506 1.47413e-10 1.65517e-08 -1.77209e-09 2.71157e-10 2.85682e-08 -3.05634e-09 1.47409e-10 1.65517e-08 -1.77208e-09 -7.73091 5.47488 -0.417314 1.47412e-10 1.65517e-08 -1.77209e-09 -2.90554 0.965183 -0.102902 1.47399e-10 1.65517e-08 -1.77209e-09 -10.2786 0.731801 -0.0259123 1.47413e-10 1.65517e-08 -1.7721e-09 -2.22167 -0.733487 0.20892 -2.03217e-16 0.0 -3.88251e-19 2.63611 -33.6471 1.64343 -0.512598 43.9435 0.191193 -0.391455 4.38704 -1.95652 2.03217e-16 0.0 3.88251e-19 -0.141759 -14.9409 -8.00689 3.01072 74.7626 -3.41066 0.650994 -4.88886 0.706493
-5.68635 81.5685 137.185 -0.7952 6.9329 -9.9147 4.83347 12.6056 -7.67005 5.44852 -6.66329 -1.54104 -10.3815 -4.02608 -2.96848 9.23873 -0.122985 -2.283 -0.0 0.0 0.0 -0.0 0.0 0.0 3.56809e-14 2.39234e-13 -1.10574e-14 78.8626 17.2464 -16.4581 -23.8052 -18.7415 49.022 -0.0585378 6.78389 0.957829 -1.22231e-09 2.82467e-09 6.05235e-10 -2.11205e-09 4.87842e-09 1.0499e-09 -1.2223e-09 2.82467e-09 6.05225e-10 7.73091 5.47488 0.417314 -1.22231e-09 2.82467e-09 6.05238e-10 2.90554 0.965183 0.102902 -1.2223e-09 2.82467e-09 6.05233e-10 10.2786 0.731801 0.0259123 -1.22231e-09 2.82467e-09 6.05242e-10 2.22167 -0.733487 -0.20892 3.56851e-14 2.39241e-13 -1.11972e-14 -84.9032 22.9688 -2.55249 27.76 -29.3296 -66.1013 0.185511 -12.4404 1.77483 3.91585e-10 1.46119e-08 -1.79505e-09 6.92007e-10 2.52511e-08 -3.09601e-09 3.9158e-10 1.46119e-08 -1.79504e-09 -7.73091 5.47488 -0.417314 3.91586e-10 1.46119e-08 -1.79505e-09 -2.90554 0.965183 -0.102902 3.91576e-10 1.46119e-08 -1.79505e-09 -10.2786 0.731801 -0.0259123 3.91589e-10 1.46119e-08 -1.79506e-09 -2.22167 -0.733487 0.20892 -2.03217e-16 0.0 -3.88251e-19 3.30861 -32.7617 1.92926 -0.495355 43.477 0.191945 -0.419097 4.08618 -2.52128 2.03217e-16 0.0 3.88251e-19 -0.0456043 -16.2184 -8.23794 3.06318 74.9424 -3.45208 0.844761 -4.95016 1.4985
-5.91916 82.0119 138.116 -1.7528 6.9458 -9.9546 5.50234 12.5124 -7.60244 5.16315 -6.71772 -1.51946 -10.3546 -3.89522 -3.08635 9.13581 -0.0588538 -2.5542 -0.0 0.0 0.0 -0.0 0.0 0.0 5.71721e-14 2.20428e-13 -8.90454e-14 78.7035 15.6598 -15.2996 -23.3878 -18.0012 47.706 -0.0749925 7.72396 1.09223 -1.0067e-09 1.82778e-09 1.6071e-10 -1.74033e-09 3.15668e-09 2.80117e-10 -1.00669e-09 1.82777e-09 1.60706e-10 7.73091 5.47488 0.417314 -1.0067e-09 1.82777e-09 1.60719e-10 2.90554 0.965183 0.102902 -1.00669e-09 1.82778e-09 1.60712e-10 10.2786 0.731801 0.0259123 -1.0067e-09 1.82778e-09 1.60718e-10 2.22167 -0.733487 -0.20892 5.71444e-14 2.20439e-13 -8.91887e-14 -85.2018 22.7798 -2.39186 27.3684 -27.6156 -63.3867 0.140667 -10.8243 1.53866 5.78166e-10 1.18854e-08 -1.72947e-09 1.01289e-09 2.05705e-08 -2.98338e-09 5.7816e-10 1.18854e-08 -1.72946e-09 -7.73091 5.47488 -0.417314 5.78169e-10 1.18854e-08 -1.72948e-09 -2.90554 0.965183 -0.102902 5.78162e-10 1.18854e-08 -1.72948e-09 -10.2786 0.731801 -0.0259123 5.78172e-10 1.18854e-08 -1.72949e-09 -2.22167 -0.733487 0.20892 -2.03217e-16 0.0 -3.88251e-19 3.87737 -31.8025 2.12695 -0.474071 42.8646 0.192082 -0.448078 3.84322 -3.00798 2.03217e-16 0.0 3.88251e-19 0.0238084 -17.4328 -8.43748 3.05515 74.8944 -3.43417 1.02557 -5.05219 2.22436
